<svg width="32" height="32" viewBox="0 0 32 32" fill="none" xmlns="http://www.w3.org/2000/svg">
<g id="Content">
<g id="logo">
<path id="Subtract" fill-rule="evenodd" clip-rule="evenodd" d="M19.0741 9.69614C19.8281 10.2513 20.2549 11.0302 20.3543 12.0328H25.5123C25.4875 10.5165 25.0814 9.18241 24.2943 8.03066C23.5725 6.97466 22.5861 6.1311 21.335 5.5L27.6667 5.5C28.9553 5.5 30 6.54467 30 7.83333V24.1667C30 25.4553 28.9553 26.5 27.6667 26.5H24.9493C25.5494 25.4563 25.8531 24.2548 25.8603 22.8957C25.852 21.8351 25.6573 20.8946 25.2762 20.0743C24.9033 19.254 24.3771 18.5414 23.6977 17.9366C23.0182 17.3317 22.2145 16.8221 21.2865 16.4078C20.3584 15.9935 19.3393 15.662 18.2289 15.4135L15.942 14.8666C15.3868 14.7423 14.8648 14.5932 14.3759 14.4192C13.8871 14.2369 13.4562 14.0256 13.0833 13.7853C12.7105 13.5367 12.4163 13.2425 12.2009 12.9028C11.9937 12.5631 11.8984 12.1654 11.915 11.7096C11.915 11.1628 12.0724 10.6739 12.3873 10.243C12.7105 9.81214 13.1745 9.47656 13.7794 9.23627C14.3842 8.98769 15.1258 8.8634 16.0041 8.8634C17.2968 8.8634 18.3201 9.14098 19.0741 9.69614ZM6.87106 26.5H4.33333C3.04467 26.5 2 25.4553 2 24.1667V7.83333C2 6.54467 3.04467 5.5 4.33333 5.5L10.7126 5.5C9.42284 6.1311 8.39432 6.97466 7.62701 8.03066C6.79841 9.18241 6.38826 10.5289 6.39654 12.0701C6.38826 13.951 7.00556 15.4466 8.24846 16.5569C9.49136 17.6673 11.1858 18.4834 13.3319 19.0054L16.1036 19.7015C17.0316 19.9252 17.8146 20.1738 18.4527 20.4472C19.099 20.7206 19.5878 21.0521 19.9193 21.4415C20.259 21.831 20.4289 22.3116 20.4289 22.8833C20.4289 23.4964 20.2424 24.0392 19.8696 24.5115C19.4967 24.9838 18.9705 25.3525 18.2911 25.6177C17.6199 25.8828 16.8286 26.0154 15.9171 26.0154C14.9891 26.0154 14.1564 25.8745 13.4189 25.5928C12.6897 25.3028 12.1056 24.8761 11.6664 24.3126C11.2356 23.7409 10.9911 23.0283 10.9331 22.1748H5.72538C5.76369 23.868 6.14558 25.3098 6.87106 26.5Z" fill="#6366F1"/>
</g>
</g>
</svg>
